<?xml version="1.0" standalone="no"?>
<!DOCTYPE svg PUBLIC "-//W3C//DTD SVG 20010904//EN"
 "http://www.w3.org/TR/2001/REC-SVG-20010904/DTD/svg10.dtd">
<svg version="1.0" xmlns="http://www.w3.org/2000/svg"
 width="700.000000pt" height="700.000000pt" viewBox="0 0 700.000000 700.000000"
 preserveAspectRatio="xMidYMid meet">
<metadata>
Created by potrace 1.14, written by Peter Selinger 2001-2017
</metadata>
<g transform="translate(0.000000,700.000000) scale(0.100000,-0.100000)"
fill="#000000" stroke="none">
<path d="M2647 5894 c-1 -1 -38 -5 -83 -8 -45 -4 -90 -8 -100 -10 -10 -2 -46
-7 -79 -11 -32 -4 -68 -9 -79 -11 -11 -2 -36 -6 -56 -9 -235 -35 -545 -140
-785 -264 -471 -244 -823 -595 -1083 -1082 -151 -283 -290 -710 -337 -1034 -3
-23 -7 -51 -10 -64 -2 -13 -7 -49 -10 -80 -4 -31 -9 -67 -11 -81 -13 -66 -12
-311 2 -369 40 -174 150 -276 356 -330 60 -16 273 -58 441 -87 l37 -6 1 188
c0 104 1 258 2 342 l2 154 28 24 c16 13 36 24 45 24 16 0 109 -14 162 -25 13
-2 42 -7 65 -10 49 -7 292 -46 319 -51 26 -5 56 -34 68 -64 5 -14 9 -167 8
-362 0 -186 3 -338 7 -338 4 0 64 -9 133 -19 69 -11 145 -22 170 -26 25 -3 56
-8 70 -10 33 -5 92 -13 160 -20 30 -4 59 -8 65 -8 6 -1 11 126 13 333 3 361 5
373 56 386 13 3 84 -4 158 -16 73 -11 144 -23 158 -25 14 -2 72 -11 130 -21
209 -33 201 -16 197 -411 -2 -164 -2 -305 1 -314 2 -12 16 -17 45 -18 23 -1
58 -3 77 -6 32 -3 151 -13 260 -20 324 -22 789 -22 975 0 175 20 203 27 208
47 8 29 0 165 -12 221 -6 26 -13 62 -15 80 -6 40 -49 190 -82 280 -71 200
-163 398 -264 572 -29 50 -60 104 -70 120 -9 17 -49 79 -89 140 -67 101 -71
110 -55 122 25 18 61 16 132 -7 191 -63 398 -252 546 -497 94 -157 204 -441
241 -621 36 -176 53 -272 54 -304 1 -16 5 -16 54 3 137 53 383 200 492 293
196 167 335 336 423 511 29 59 75 190 88 250 17 84 13 222 -11 340 -97 475
-283 883 -551 1213 -68 83 -211 229 -284 291 -30 25 -64 54 -75 64 -38 36
-183 135 -286 198 -124 74 -268 144 -422 203 -111 43 -282 98 -344 111 -10 2
-49 11 -88 20 -38 10 -79 19 -90 20 -11 2 -56 10 -100 19 -44 9 -98 18 -120
21 -22 3 -53 7 -70 10 -16 3 -52 7 -80 10 -27 3 -70 8 -95 10 -124 14 -182 17
-388 19 -122 1 -224 1 -225 0z"/>
<path d="M6297 3273 c-18 -9 -45 -52 -92 -146 -209 -421 -494 -734 -860 -944
-81 -47 -253 -130 -285 -138 -3 0 -31 -11 -63 -23 -66 -25 -247 -80 -289 -87
-15 -3 -56 -12 -90 -20 -35 -8 -85 -17 -113 -21 -27 -3 -52 -8 -55 -9 -3 -2
-33 -6 -65 -10 -33 -3 -73 -8 -90 -10 -198 -26 -749 -26 -1000 0 -22 2 -74 6
-115 9 -41 4 -84 8 -95 10 -11 2 -58 7 -104 11 -47 4 -92 8 -100 10 -9 1 -47
6 -86 9 -38 4 -81 9 -95 11 -14 2 -46 6 -72 10 -27 3 -69 7 -95 10 -27 4 -59
8 -73 10 -14 2 -43 6 -65 9 -22 3 -89 12 -150 21 -60 8 -123 17 -140 20 -55 7
-239 35 -270 40 -16 3 -43 7 -60 10 -16 3 -50 8 -75 11 -47 6 -63 8 -120 18
-77 13 -96 16 -130 22 -19 3 -84 14 -145 24 -60 11 -126 22 -145 25 -19 3 -71
12 -115 20 -44 8 -96 17 -115 20 -75 13 -402 77 -530 105 -188 40 -257 52
-318 52 -91 1 -93 -29 -6 -87 141 -94 555 -284 844 -387 331 -119 685 -230
995 -312 154 -41 463 -118 525 -130 14 -3 97 -21 185 -40 88 -19 171 -37 185
-40 14 -2 72 -13 130 -25 147 -29 464 -83 560 -96 25 -3 70 -10 100 -15 30 -5
78 -12 105 -15 28 -3 65 -8 83 -11 81 -11 101 -13 157 -19 33 -3 71 -8 85 -10
14 -3 61 -7 105 -10 44 -4 91 -8 105 -10 14 -2 66 -7 115 -11 50 -3 106 -8
125 -9 192 -18 744 -24 988 -12 324 16 540 84 774 243 96 66 104 72 213 179
184 180 340 417 470 714 61 140 75 197 71 295 -8 198 -167 452 -384 615 -124
94 -261 143 -315 114z"/>
</g>
</svg>
